# xmcd
#
# Track frame offsets:
# 150
# 14440
# 29753
# 45738
# 62783
# 74625
# 91253
# 97218
# 109440
# 126520
# 142695
# 159788
# 177295
#
# Disc length: 2446 seconds
#
# Revision: 0
# Processed by: cddbd v1.4PL0 Copyright (c) Steve Scherf et al.
# Submitted via: MacMP3 Pro 5.0 (http://mp3.act2.co.jp/)
#
DISCID=bc098c0d
DTITLE=Î¬ÒœÛYÏ“ - Îg„ªË®«>=«ªÛ<sum>≈`Â?«?ÔÛ«√Èl„G≈`
DYEAR=1900
DGENRE=
TTITLE0=Ë®«>=«ªÛ<sum>Û<sum>≈@≈`Â?«?ÔÛ«√Èl„G≈`…≈…C…Ï≈E…e≈[…}
TTITLE1=„F«À«√ÔŸ
TTITLE2=ÍSÍ¸«fiÏ<pi>
TTITLE3=ÔÕÈ~
TTITLE4=‚'«√Ì?
TTITLE5=Û[‚f«∂«√ÈR‚’
TTITLE6=«>=«ªÛ<sum>Û<sum>≈@≈`Â?«?ÔÛ«√Èl„G≈`…C…Ï…^≈[…„≈[…h
TTITLE7=ÒY«Õ«ª«¢‰X
TTITLE8=ÛOE«√‡?ÈY
TTITLE9=ÚVÍÙ«’‚J«...Ó∏«µ«!=
TTITLE10=Ò<=«...‰“«ÀÏY«¢
TTITLE11=«?«(TM)«?„P«!=Ï?
TTITLE12=«>=«ªÛ<sum>Û<sum>≈@≈`Â?«?ÔÛ«√Èl„G≈`…G…Ï…f…B…Ï…O≈E…e≈[…}≈@
EXTD=
EXTT0=
EXTT1=
EXTT2=
EXTT3=
EXTT4=
EXTT5=
EXTT6=
EXTT7=
EXTT8=
EXTT9=
EXTT10=
EXTT11=
EXTT12=
PLAYORDER=
